<svg id="visual" viewBox="0 0 900 600" width="100%" height="300px" xmlns="http://www.w3.org/2000/svg" xmlns:xlink="http://www.w3.org/1999/xlink" version="1.1"><rect x="0" y="0" width="900" height="600" fill="#002233"></rect><path d="M0 298L21.5 288.7C43 279.3 86 260.7 128.8 285.2C171.7 309.7 214.3 377.3 257.2 390.8C300 404.3 343 363.7 385.8 364.7C428.7 365.7 471.3 408.3 514.2 432C557 455.7 600 460.3 642.8 445.7C685.7 431 728.3 397 771.2 373.3C814 349.7 857 336.3 878.5 329.7L900 323L900 601L878.5 601C857 601 814 601 771.2 601C728.3 601 685.7 601 642.8 601C600 601 557 601 514.2 601C471.3 601 428.7 601 385.8 601C343 601 300 601 257.2 601C214.3 601 171.7 601 128.8 601C86 601 43 601 21.5 601L0 601Z" fill="#0066FF" stroke-linecap="round" stroke-linejoin="miter"></path></svg>